<?xml version="1.0" encoding="utf-8"?>
<!-- Generator: Adobe Illustrator 23.0.1, SVG Export Plug-In . SVG Version: 6.00 Build 0)  -->
<svg version="1.1" id="Layer_1" xmlns="http://www.w3.org/2000/svg" xmlns:xlink="http://www.w3.org/1999/xlink" x="0px" y="0px"
	 viewBox="0 0 20 20" style="enable-background:new 0 0 20 20;" xml:space="preserve">
<style type="text/css">
	.st0{fill:#02A9F7;}
	.st1{fill:#02577A;}
</style>
<path class="st0" d="M5.1,6c0,0.3,0,0.6,0,0.9C5,7,5,7,5,7.1c0,0.1,0,0.3-0.1,0.4c-0.1,0.3,0,0.6,0.2,0.8c0.2,0.2,0.6,0.2,0.8,0
	c0.2-0.2,0.3-0.5,0.2-0.8C6.1,7.4,6,7.3,6,7.2c0-0.4,0-0.7,0-1.1c0-0.1,0-0.1,0-0.2c2.6,0,5.2,0,7.8,0c0,0.1,0,0.3,0,0.4
	c0,0.3,0,0.6,0,0.9c0,0.1,0,0.1,0,0.2C13.8,7.7,13.8,8,14,8.2c0.2,0.2,0.4,0.3,0.7,0.2c0.3-0.1,0.4-0.3,0.5-0.6
	c0-0.1-0.1-0.3-0.1-0.4c0,0,0-0.1,0-0.1c0-0.4,0-0.9-0.1-1.3c0,0,0,0,0,0c0.6-0.1,1,0.2,1,0.8C16,7.5,16.1,8.2,16.1,9
	c0.1,1.1,0.2,2.1,0.2,3.2c0.1,0.8,0.1,1.7,0.2,2.5c0.1,1,0.2,2.1,0.2,3.1c0,0.4,0.1,0.9,0.1,1.3c0,0.5-0.3,0.9-0.8,0.9
	C12,20,8,20,3.9,20c-0.5,0-0.9-0.4-0.8-0.9c0.1-0.8,0.1-1.6,0.2-2.5c0.1-0.8,0.1-1.5,0.2-2.3c0.1-1.1,0.2-2.1,0.2-3.2
	c0.1-0.9,0.1-1.9,0.2-2.8C3.9,7.8,4,7.3,4,6.7C4.1,6.3,4.4,6,4.9,6C4.9,6,5,6,5.1,6z"/>
<path class="st1" d="M14.8,7c0,0.2,0,0.5,0,0.7c0,0.2-0.1,0.3-0.3,0.3c-0.2,0-0.3-0.1-0.3-0.3c0-1-0.1-2-0.3-3
	c-0.2-0.9-0.4-1.8-0.9-2.5C12.2,1,11.1,0.5,9.7,0.6c-0.7,0-1.4,0.3-2,0.7c-0.6,0.5-1,1.1-1.2,1.8C6.2,3.8,6,4.6,5.9,5.4
	C5.8,6.2,5.8,7,5.8,7.7C5.8,7.9,5.7,8,5.5,8C5.3,8,5.2,7.9,5.2,7.8c0-1.4,0.1-2.8,0.5-4.2C6,2.7,6.4,1.9,7,1.3
	C7.7,0.5,8.5,0.1,9.6,0c0.7-0.1,1.5,0,2.2,0.3c0.9,0.4,1.5,1.1,2,1.9c0.4,0.8,0.7,1.6,0.8,2.4C14.7,5.5,14.7,6.2,14.8,7z"/>
</svg>
