<?xml version="1.0" encoding="utf-8"?>
<!-- Generator: Adobe Illustrator 23.0.1, SVG Export Plug-In . SVG Version: 6.00 Build 0)  -->
<svg version="1.1" id="Layer_1" xmlns="http://www.w3.org/2000/svg" xmlns:xlink="http://www.w3.org/1999/xlink" x="0px" y="0px"
	 viewBox="0 0 465.4 134" style="enable-background:new 0 0 465.4 134;" xml:space="preserve">
<style type="text/css">
	.st0{fill:#D4F0FC;}
	.st1{fill:#02A9F7;}
	.st2{fill:#02577A;}
</style>
<g>
	<g>
		<g>
			<path class="st0" d="M78.8,74.9V21.4h25c11.6,0,18,7.9,18,17.2c0,9.3-6.4,17.2-18,17.2H90.2v19.1H78.8z M110.2,38.7
				c0-4.5-3.4-7.2-7.9-7.2h-12v14.4h12C106.7,45.8,110.2,43.1,110.2,38.7z"/>
			<path class="st0" d="M126.4,48.2c0-16.5,12.4-27.7,28.5-27.7c11.7,0,18.5,6.3,22.3,13.1l-9.8,4.8c-2.2-4.3-7.1-7.8-12.5-7.8
				c-9.8,0-16.8,7.5-16.8,17.6c0,10.1,7.1,17.6,16.8,17.6c5.5,0,10.3-3.4,12.5-7.8l9.8,4.7c-3.8,6.7-10.6,13.1-22.3,13.1
				C138.8,75.9,126.4,64.6,126.4,48.2z"/>
		</g>
	</g>
	<g>
		<g>
			<path class="st1" d="M94.1,103.3V87.9l-6,15.3h-2l-6-15.3v15.3h-4.5V82H82l5.2,13.3L92.3,82h6.4v21.2H94.1z"/>
			<path class="st1" d="M113.3,103.3v-2c-1.2,1.5-2.9,2.4-4.7,2.4c-3.9,0-6.8-2.9-6.8-8.1c0-5,2.9-8.1,6.8-8.1
				c1.8,0,3.5,0.8,4.7,2.4v-2h4.1v15.4H113.3z M113.3,98.3v-5.4c-0.7-1-2.1-1.8-3.5-1.8c-2.3,0-3.9,1.8-3.9,4.5
				c0,2.7,1.6,4.5,3.9,4.5C111.2,100,112.6,99.3,113.3,98.3z"/>
			<path class="st1" d="M121.4,103.3V87.9h4v2.1c1.1-1.3,3-2.5,4.9-2.5v3.9c-0.3-0.1-0.6-0.1-1.1-0.1c-1.3,0-3.1,0.8-3.8,1.8v10.2
				H121.4z"/>
			<path class="st1" d="M142.8,103.3l-4.1-5.9l-1.8,2v3.9h-4V82h4v12.7l5.8-6.8h5l-6.1,7l6.3,8.4H142.8z"/>
			<path class="st1" d="M148.9,95.5c0-4.5,3.3-8.1,8-8.1c4.6,0,7.7,3.4,7.7,8.4v1h-11.4c0.3,1.9,1.8,3.4,4.4,3.4
				c1.3,0,3.1-0.5,4.1-1.5l1.8,2.7c-1.5,1.4-3.9,2.1-6.3,2.1C152.5,103.6,148.9,100.5,148.9,95.5z M156.9,90.8
				c-2.5,0-3.6,1.8-3.8,3.3h7.6C160.6,92.6,159.6,90.8,156.9,90.8z"/>
			<path class="st1" d="M168.4,99.4v-8h-2.5v-3.5h2.5v-4.2h4v4.2h3.1v3.5h-3.1v6.9c0,1,0.5,1.7,1.4,1.7c0.6,0,1.2-0.2,1.4-0.5
				l0.9,3.1c-0.6,0.5-1.7,1-3.4,1C169.9,103.6,168.4,102.2,168.4,99.4z"/>
		</g>
	</g>
	<path class="st1" d="M19.4,44.9c-0.1,1.3-0.1,2.6-0.2,3.8c0,0.3,0,0.6,0,0.9c0,0.6-0.1,1.1-0.3,1.6c-0.5,1.1-0.1,2.4,0.8,3.1
		c1,0.7,2.3,0.7,3.3-0.1c0.9-0.8,1.2-2.1,0.7-3.2c-0.1-0.3-0.2-0.7-0.2-1c0-1.5,0.1-2.9,0.2-4.4c0-0.3,0.1-0.5,0.1-0.8
		c10.6,0,21.2,0,31.9,0c0.1,0.6,0.1,1.1,0.2,1.7c0.1,1.3,0.1,2.5,0.1,3.8c0,0.2-0.1,0.4-0.2,0.6c-0.5,1-0.4,2.2,0.4,3
		c0.8,0.8,1.7,1.1,2.8,0.8c1.1-0.4,1.8-1.2,1.9-2.3c0-0.5-0.2-1-0.3-1.5c0-0.1-0.2-0.3-0.2-0.4c-0.1-1.8-0.2-3.6-0.3-5.4
		c0-0.1,0-0.1,0-0.2c2.3-0.4,4,0.9,4.2,3.3c0.3,3,0.5,6.1,0.7,9.1c0.3,4.3,0.7,8.7,1,13c0.3,3.5,0.5,6.9,0.8,10.4
		c0.3,4.3,0.7,8.6,1,12.9c0.1,1.8,0.3,3.5,0.4,5.3c0.1,2-1.4,3.6-3.4,3.6c-16.7,0-33.4,0-50.2,0c-2,0-3.5-1.6-3.4-3.6
		c0.2-3.4,0.5-6.7,0.8-10.1c0.2-3.1,0.5-6.2,0.7-9.3c0.3-4.4,0.7-8.7,1-13.1c0.3-3.9,0.6-7.8,0.9-11.7c0.2-2.3,0.3-4.5,0.5-6.8
		c0.2-1.9,1.6-3.1,3.4-3.1C18.8,44.9,19.1,44.9,19.4,44.9z"/>
	<path class="st2" d="M59.3,49.3c0,1,0,1.9,0,2.9c0,0.8-0.5,1.3-1.2,1.3c-0.7,0-1.2-0.5-1.2-1.3c0-4.2-0.2-8.3-1-12.4
		c-0.7-3.7-1.8-7.2-3.9-10.4c-3.2-4.8-7.8-6.7-13.4-6.4c-3,0.2-5.8,1.1-8.1,3c-2.4,1.9-3.9,4.4-5.1,7.2c-1.3,3.1-2,6.4-2.4,9.7
		c-0.4,3.1-0.5,6.3-0.6,9.4c0,0.8-0.5,1.3-1.2,1.3c-0.7,0-1.2-0.5-1.2-1.2c0-5.8,0.5-11.6,2.2-17.3c1-3.4,2.5-6.6,5-9.3
		c2.9-3.1,6.5-4.8,10.7-5.2c3.1-0.3,6,0.1,8.9,1.3c3.7,1.6,6.3,4.3,8.2,7.8c1.7,3.1,2.7,6.5,3.3,10C58.9,42.9,59.2,46.1,59.3,49.3z"
		/>
</g>
</svg>
